# xmcd
#
# Track frame offsets:
#	150
#	13876
#	29272
#	46355
#	59812
#	81612
#	97513
#	116367
#	129083
#	141352
#	159246
#	175524
#	190510
#	204917
#	222102
#	240810
#
# Disc length: 3433 seconds
#
# Revision: 1
# Processed by: cddbd v1.4PL0 Copyright (c) Steve Scherf et al.
# Submitted via: audiograbber 1.82.02
#
DISCID=c50d6710
DTITLE=Аня Воробей - Новое и лучшее
DYEAR=2003
DGENRE=Шансон
TTITLE0=Домой
TTITLE1=Журавлик
TTITLE2=Зима на сердце
TTITLE3=Марука
TTITLE4=Материнские слёзы
TTITLE5=Музыкант
TTITLE6=Непогода
TTITLE7=Непутёвый
TTITLE8=Осень на севере
TTITLE9=Письмецо
TTITLE10=Разговор с сыном
TTITLE11=Речной этап
TTITLE12=Рождественский снег
TTITLE13=РЦД
TTITLE14=Тишина
TTITLE15=Встреча
EXTD=
EXTT0=
EXTT1=
EXTT2=
EXTT3=
EXTT4=
EXTT5=
EXTT6=
EXTT7=
EXTT8=
EXTT9=
EXTT10=
EXTT11=
EXTT12=
EXTT13=
EXTT14=
EXTT15=
PLAYORDER=
